<?xml version="1.0" encoding="UTF-8" standalone="no"?>
<!-- Created with Inkscape (http://www.inkscape.org/) -->

<svg
   width="206.2534mm"
   height="52.243mm"
   viewBox="0 0 206.2534 52.243"
   version="1.1"
   id="svg1"
   xml:space="preserve"
   inkscape:version="1.3.2 (091e20ef0f, 2023-11-25, custom)"
   sodipodi:docname="vector.svg"
   xmlns:inkscape="http://www.inkscape.org/namespaces/inkscape"
   xmlns:sodipodi="http://sodipodi.sourceforge.net/DTD/sodipodi-0.dtd"
   xmlns:xlink="http://www.w3.org/1999/xlink"
   xmlns="http://www.w3.org/2000/svg"
   xmlns:svg="http://www.w3.org/2000/svg"><sodipodi:namedview
     id="namedview1"
     pagecolor="#ffffff"
     bordercolor="#000000"
     borderopacity="0.25"
     inkscape:showpageshadow="2"
     inkscape:pageopacity="0.0"
     inkscape:pagecheckerboard="0"
     inkscape:deskcolor="#d1d1d1"
     inkscape:document-units="mm"
     showguides="true"
     inkscape:zoom="1.5098839"
     inkscape:cx="356.98109"
     inkscape:cy="149.68038"
     inkscape:window-width="2230"
     inkscape:window-height="1380"
     inkscape:window-x="0"
     inkscape:window-y="0"
     inkscape:window-maximized="1"
     inkscape:current-layer="layer1"><sodipodi:guide
       position="102.99177,51.628061"
       orientation="0,-1"
       id="guide2"
       inkscape:locked="false" /><sodipodi:guide
       position="94.894075,0.9688707"
       orientation="0,-1"
       id="guide3"
       inkscape:locked="false" /></sodipodi:namedview><defs
     id="defs1"><linearGradient
       id="linearGradient54"
       inkscape:collect="always"><stop
         style="stop-color:#bbbbbb;stop-opacity:1;"
         offset="0"
         id="stop54" /><stop
         style="stop-color:#808080;stop-opacity:1;"
         offset="1"
         id="stop55" /></linearGradient><linearGradient
       id="linearGradient53"
       inkscape:collect="always"><stop
         style="stop-color:#00d4d9;stop-opacity:1;"
         offset="0"
         id="stop52" /><stop
         style="stop-color:#00aef1;stop-opacity:0;"
         offset="1"
         id="stop53" /></linearGradient><linearGradient
       id="linearGradient51"
       inkscape:collect="always"><stop
         style="stop-color:#00aef1;stop-opacity:1;"
         offset="0"
         id="stop50" /><stop
         style="stop-color:#00aef1;stop-opacity:0;"
         offset="1"
         id="stop51" /></linearGradient><linearGradient
       id="linearGradient25"
       inkscape:collect="always"><stop
         style="stop-color:#ff2a2a;stop-opacity:1;"
         offset="0"
         id="stop24" /><stop
         style="stop-color:#ff2a2a;stop-opacity:0;"
         offset="1"
         id="stop25" /></linearGradient><linearGradient
       id="linearGradient23"
       inkscape:collect="always"><stop
         style="stop-color:#ff2ab0;stop-opacity:1;"
         offset="0"
         id="stop22" /><stop
         style="stop-color:#ff2ab1;stop-opacity:0;"
         offset="1"
         id="stop23" /></linearGradient><linearGradient
       id="linearGradient21"
       inkscape:collect="always"><stop
         style="stop-color:#ff912a;stop-opacity:1;"
         offset="0"
         id="stop20" /><stop
         style="stop-color:#ff912a;stop-opacity:0;"
         offset="1"
         id="stop21" /></linearGradient><linearGradient
       id="linearGradient19"
       inkscape:collect="always"><stop
         style="stop-color:#c62aff;stop-opacity:0.83137298;"
         offset="0"
         id="stop18" /><stop
         style="stop-color:#c42aff;stop-opacity:0;"
         offset="1"
         id="stop19" /></linearGradient><linearGradient
       id="linearGradient17"
       inkscape:collect="always"><stop
         style="stop-color:#2a3cff;stop-opacity:0.83137298;"
         offset="0"
         id="stop16" /><stop
         style="stop-color:#2a3cff;stop-opacity:0;"
         offset="1"
         id="stop17" /></linearGradient><linearGradient
       id="linearGradient14"
       inkscape:collect="always"><stop
         style="stop-color:#ffd82a;stop-opacity:0.83137297;"
         offset="0"
         id="stop14" /><stop
         style="stop-color:#ffd82a;stop-opacity:0;"
         offset="1"
         id="stop15" /></linearGradient><linearGradient
       id="swatch12"><stop
         style="stop-color:#2a62ff;stop-opacity:1;"
         offset="0"
         id="stop12" /><stop
         style="stop-color:#2a37ff;stop-opacity:0;"
         offset="1"
         id="stop13" /></linearGradient><radialGradient
       inkscape:collect="always"
       xlink:href="#linearGradient14"
       id="radialGradient15"
       cx="53.436661"
       cy="164.99721"
       fx="53.436661"
       fy="164.99721"
       r="51.563339"
       gradientTransform="matrix(1,0,0,1.0173047,-42.371416,-107.47346)"
       gradientUnits="userSpaceOnUse" /><radialGradient
       inkscape:collect="always"
       xlink:href="#linearGradient17"
       id="radialGradient16"
       gradientUnits="userSpaceOnUse"
       gradientTransform="matrix(1,0,0,1.0173047,-63.14309,-154.95418)"
       cx="53.436661"
       cy="164.99721"
       fx="53.436661"
       fy="164.99721"
       r="51.563339" /><radialGradient
       inkscape:collect="always"
       xlink:href="#linearGradient19"
       id="radialGradient16-1"
       gradientUnits="userSpaceOnUse"
       gradientTransform="matrix(1,0,0,1.0173047,-5.5550625,-113.77692)"
       cx="53.436661"
       cy="164.99721"
       fx="53.436661"
       fy="164.99721"
       r="51.563339" /><radialGradient
       inkscape:collect="always"
       xlink:href="#linearGradient23"
       id="radialGradient16-1-3"
       gradientUnits="userSpaceOnUse"
       gradientTransform="matrix(1,0,0,1.0173047,14.832409,-80.234097)"
       cx="51.435333"
       cy="166.50778"
       fx="51.435333"
       fy="166.50778"
       r="51.563339" /><radialGradient
       inkscape:collect="always"
       xlink:href="#linearGradient21"
       id="radialGradient16-1-3-3"
       gradientUnits="userSpaceOnUse"
       gradientTransform="matrix(1,0,0,1.0173047,51.563341,-126.1924)"
       cx="51.435333"
       cy="166.50778"
       fx="51.435333"
       fy="166.50778"
       r="51.563339" /><radialGradient
       inkscape:collect="always"
       xlink:href="#linearGradient25"
       id="radialGradient16-1-3-5"
       gradientUnits="userSpaceOnUse"
       gradientTransform="matrix(1,0,0,1.0173047,27.189315,-136.86397)"
       cx="51.435333"
       cy="166.50778"
       fx="51.435333"
       fy="166.50778"
       r="51.563339" /><radialGradient
       inkscape:collect="always"
       xlink:href="#linearGradient51"
       id="radialGradient50"
       gradientUnits="userSpaceOnUse"
       gradientTransform="matrix(1,0,0,1.0173047,-25.986235,-144.66326)"
       cx="55.048862"
       cy="172.66383"
       fx="55.048862"
       fy="172.66383"
       r="51.563339" /><radialGradient
       inkscape:collect="always"
       xlink:href="#linearGradient53"
       id="radialGradient50-3"
       gradientUnits="userSpaceOnUse"
       gradientTransform="matrix(1,0,0,1.0173047,-10.897204,-157.25254)"
       cx="23.503365"
       cy="156.16995"
       fx="23.503365"
       fy="156.16995"
       r="51.563339" /><clipPath
       clipPathUnits="userSpaceOnUse"
       id="clipPath53"><path
         id="path53"
         style="fill:#ffffff;stroke-width:1.11318"
         d="m 0.3041779,14.545058 c -3.0193639,-0.0191 -6.0491857,0.0857 -9.0423417,0.0832 0.00259,0.17904 0.0052,0.3584 0.0077,0.53744 0.01968,1.8448 0.1059781,3.68799 0.1152379,5.53299 2.3049472,0.56151 4.654018,0.0364 6.9463471,-0.34209 12.2178908,-2.01728 14.4627878,5.545151 12.9227268,8.88886 -2.734405,5.936821 -10.58931898,3.174539 -16.6206921,9.13071 -3.4935333,3.2813 -4.9800989,8.394201 -4.0845052,13.068452 0.5541041,3.30604 2.1304201,6.378628 4.325317,8.895056 1.994249,2.311231 4.17734223,4.57073 6.8796853,6.048211 6.667519,2.573782 -8.0822951,-7.810897 -6.5226012,-17.92655 1.1162969,-7.023629 8.2618043,-7.670508 13.7221603,-9.707418 3.0113279,-1.0999 6.0861759,-2.866282 7.4801649,-5.88749 1.633158,-3.539572 1.896741,-7.87322 0.156062,-11.432381 -1.445834,-2.9563 -4.189882,-5.27039 -7.306531,-6.22804 -2.9505179,-0.49877 -5.959416,-0.6418 -8.97877905,-0.66095 z m 63.4746791,13.63687 c -1.898148,0.11498 -3.538249,0.708851 -5.214152,1.856219 l -1.875338,1.28416 -0.537434,-1.30742 -0.537951,-1.306888 -4.565097,-0.0021 V 47.260849 65.8163 h 3.240111 3.239598 v -6.479709 c 0,-3.5638 0.06051,-6.479702 0.134358,-6.479702 0.0738,0 0.602306,0.318029 1.174605,0.706411 2.386888,1.61979 6.649302,1.75241 9.870199,0.306959 2.040088,-0.91554 4.56434,-3.390339 5.539713,-5.431189 1.463292,-3.06178 1.950657,-7.47212 1.210779,-10.956442 -0.427551,-2.01345 -1.760593,-4.653859 -3.095935,-6.13192 -1.446125,-1.6007 -4.189764,-2.902968 -6.588228,-3.126949 -0.700855,-0.0654 -1.362512,-0.0802 -1.995228,-0.0419 z m -1.51102,5.664229 c 1.728208,-0.13408 3.501538,0.43643 4.905129,2.035022 1.288553,1.46758 1.696265,2.901119 1.6862,5.930901 -0.0078,2.245318 -0.12319,2.876378 -0.757057,4.12378 -1.265613,2.490626 -4.00431,3.776599 -6.638872,3.117117 -1.278247,-0.31995 -2.895749,-1.364181 -3.46904,-2.239137 -0.405199,-0.618413 -0.466979,-1.531834 -0.398941,-5.924181 l 0.08062,-5.192972 1.620054,-0.917768 c 0.914498,-0.518221 1.934988,-0.85231 2.971914,-0.932762 z m 32.85381,-5.452358 c -3.08433,-0.088 -5.736169,1.46532 -7.94939,3.622 -0.294521,-1.083511 -0.413959,-2.199931 -0.5612,-3.309872 h -5.520079 v 12.811619 12.812141 h 3.387389 3.386871 v -8.189169 -8.188639 l 0.95705,-0.908481 c 1.906231,-1.80898 4.590521,-2.52177 7.214029,-1.915639 1.249781,0.288748 1.25013,0.288639 1.656752,-1.080561 0.223618,-0.753049 0.578969,-2.14099 0.790128,-3.08456 0.45376,-2.02756 0.36944,-2.129531 -2.01331,-2.42724 -0.458269,-0.0826 -0.907619,-0.129019 -1.34824,-0.141599 z m -66.77732,0.312128 c -0.831828,0 -6.607672,0.198951 -7.337536,0.198951 -0.109648,0 2.186787,5.799461 4.859653,12.64368 2.672852,6.84422 4.860168,12.608862 4.860168,12.810069 0,0.201192 -0.994241,2.802771 -2.209168,5.781561 -1.21494,2.978801 -2.209167,5.47487 -2.209167,5.546429 0,0.0716 1.623652,0.129429 3.608049,0.129193 h 3.608046 l 1.871204,-5.227592 c 1.367013,-3.819078 10.044692,-26.334039 12.034407,-31.514361 -1.132266,-0.1617 -4.703604,-0.36793 -6.669876,-0.36793 l -3.135726,9.623182 c -1.949283,5.982389 -3.220008,9.464798 -3.358967,9.204091 -0.122941,-0.230653 -1.18251,-3.533844 -2.354379,-7.340641 -1.171871,-3.806801 -2.453558,-7.94866 -2.848406,-9.20409 z" /></clipPath><radialGradient
       inkscape:collect="always"
       xlink:href="#linearGradient54"
       id="radialGradient55"
       cx="165.97809"
       cy="94.449821"
       fx="165.97809"
       fy="94.449821"
       r="49.290501"
       gradientTransform="matrix(1.213071,0.18117587,-0.09448548,1.1350057,-31.323667,-74.32757)"
       gradientUnits="userSpaceOnUse" /><clipPath
       clipPathUnits="userSpaceOnUse"
       id="clipPath56"><path
         id="path56"
         style="fill:#ffffff;fill-opacity:1;stroke-width:1.11318"
         d="m 113.58273,18.998093 v 19.586401 19.585884 h 3.38688 3.38739 V 38.584494 18.998093 h -3.38739 z m 88.0644,0 c -0.0278,5.056764 -0.0807,10.634428 -0.22118,14.662154 -7.77834,-3.986406 -13.34635,-0.0491 -15.50551,3.099035 -1.51629,2.210778 -2.25592,4.594813 -2.43965,7.862569 -0.38658,6.875375 2.55676,11.963207 7.94215,13.729396 3.4212,0.844558 7.15889,0.267499 9.8454,-2.054138 l 1.16892,-1.056267 0.68626,1.465027 0.68575,1.464509 h 2.15904 2.15852 V 38.584494 18.998093 h -3.24011 z m -64.87925,13.00179 c -3.08276,0.01 -6.20412,0.706524 -8.99531,1.780253 -1.40257,0.553519 -1.54906,0.692661 -1.39062,1.32395 0.26622,1.060689 1.36291,3.921208 1.50327,3.921208 0.0675,0 1.15139,-0.288165 2.40864,-0.641305 3.20231,-0.899499 7.10659,-0.899629 8.8346,0 1.47933,0.77017 2.13748,1.677127 2.34663,3.236495 l 0.15348,1.14515 -3.05201,0.207739 c -8.94332,0.60833 -12.92933,3.208469 -12.91033,8.422224 0.0115,3.185758 2.14848,5.781829 5.73557,6.968567 1.3432,0.44437 5.26776,0.345781 6.97942,-0.175699 0.59905,-0.18251 1.76252,-0.78467 2.58537,-1.338419 l 1.49604,-1.007692 0.4656,1.16427 0.4656,1.163754 h 2.49029 2.49029 l -0.0925,-9.351883 c -0.0923,-9.351311 -0.0919,-9.35066 -0.94981,-11.208619 -1.03417,-2.239777 -2.79728,-3.893338 -5.13664,-4.817277 -1.74188,-0.556399 -3.57792,-0.798436 -5.42758,-0.792716 z m 31.96911,0.676961 c -2.49912,-0.0325 -5.28489,0.748599 -7.36337,2.154907 l -1.48363,1.003557 -0.53382,-1.290878 -0.53382,-1.29036 h -2.47427 -2.47427 v 12.81162 12.812139 h 3.38688 3.38687 l 5.3e-4,-9.084718 c 0,-10.088639 0.19324,-9.292129 0.34468,-9.857278 2.41241,-2.088628 7.6399,-1.507551 9.22734,1.006657 0.54551,0.926149 0.59573,1.625797 0.68265,9.46764 l 0.0941,8.467699 h 3.36672 3.36724 v -8.929688 c 0,-9.83202 -0.14046,-10.875805 -1.8123,-13.509253 -0.95899,-1.510588 -2.96734,-2.950579 -4.81469,-3.451468 -0.73249,-0.19861 -1.53374,-0.299756 -2.36678,-0.310576 z m 27.52959,4.972823 c 0.13761,-8.2e-4 0.27596,0.0027 0.41496,0.01137 1.33434,0.0835 2.72411,0.60519 4.00854,1.563729 l 0.95705,0.714168 v 5.379 c 0,5.378696 -2.6e-4,5.378484 -0.84388,6.186704 -1.8551,1.777257 -7.16354,3.0074 -9.63714,-2.048454 -0.81972,-1.67544 -1.55394,-5.430558 0.0439,-8.555035 1.10318,-2.157101 2.99226,-3.239204 5.05654,-3.251481 z m -55.55424,9.033558 c 0.87374,0 0.87369,1.64e-4 0.78859,2.572451 l -0.0853,2.572454 c -1.78716,0.984589 -4.6007,2.174711 -6.62078,1.318784 -2.67476,-1.133351 -3.02232,-4.047114 -0.62839,-5.268415 1.04211,-0.531628 4.67607,-1.195274 6.54585,-1.195274 z" /></clipPath></defs><g
     inkscape:label="Calque 1"
     inkscape:groupmode="layer"
     id="layer1"
     transform="translate(-1.8732737,-18.383143)"><g
       id="g46"
       transform="translate(11.579702,3.8404128)"
       clip-path="url(#clipPath53)"
       mask="none"><ellipse
         style="fill:url(#radialGradient15);stroke-width:0.264583"
         id="path14"
         cx="11.065245"
         cy="60.378971"
         rx="51.563339"
         ry="52.455627" /><ellipse
         style="fill:url(#radialGradient16);stroke-width:0.264583"
         id="ellipse15"
         cx="-9.7064285"
         cy="12.898252"
         rx="51.563339"
         ry="52.455627" /><ellipse
         style="fill:url(#radialGradient16-1);stroke-width:0.264583"
         id="ellipse15-2"
         cx="47.881599"
         cy="54.075516"
         rx="51.563339"
         ry="52.455627" /><ellipse
         style="fill:url(#radialGradient16-1-3);stroke-width:0.264583"
         id="ellipse15-2-2"
         cx="68.269066"
         cy="87.61834"
         rx="51.563339"
         ry="52.455627" /><ellipse
         style="fill:url(#radialGradient16-1-3-5);stroke-width:0.264583"
         id="ellipse15-2-2-1"
         cx="80.625969"
         cy="30.988468"
         rx="51.563339"
         ry="52.455627" /><ellipse
         style="fill:url(#radialGradient16-1-3-3);stroke-width:0.264583"
         id="ellipse15-2-2-7"
         cx="105"
         cy="41.660038"
         rx="51.563339"
         ry="52.455627" /><ellipse
         style="fill:url(#radialGradient50);stroke-width:0.264583"
         id="ellipse50"
         cx="27.450426"
         cy="23.189167"
         rx="51.563339"
         ry="52.455627" /><ellipse
         style="fill:url(#radialGradient50-3);stroke-width:0.264583"
         id="ellipse50-1"
         cx="42.539455"
         cy="10.599883"
         rx="51.563339"
         ry="52.455627" /></g><ellipse
       style="fill:url(#radialGradient55);stroke:none;stroke-width:0.373761"
       id="path54"
       cx="165.84593"
       cy="37.819046"
       rx="60.163433"
       ry="55.735882"
       clip-path="url(#clipPath56)" /></g></svg>
