<?xml version="1.0" encoding="UTF-8" standalone="no"?>
<!-- Created with Inkscape (http://www.inkscape.org/) -->

<svg
   width="800"
   height="200"
   viewBox="0 0 211.66666 52.916667"
   version="1.1"
   id="svg1"
   xml:space="preserve"
   inkscape:version="1.3.2 (091e20ef0f, 2023-11-25, custom)"
   sodipodi:docname="logo.svg"
   xmlns:inkscape="http://www.inkscape.org/namespaces/inkscape"
   xmlns:sodipodi="http://sodipodi.sourceforge.net/DTD/sodipodi-0.dtd"
   xmlns="http://www.w3.org/2000/svg"
   xmlns:svg="http://www.w3.org/2000/svg"><sodipodi:namedview
     id="namedview1"
     pagecolor="#ffffff"
     bordercolor="#000000"
     borderopacity="0.25"
     inkscape:showpageshadow="2"
     inkscape:pageopacity="0.0"
     inkscape:pagecheckerboard="0"
     inkscape:deskcolor="#d1d1d1"
     inkscape:document-units="mm"
     showguides="true"
     inkscape:zoom="2"
     inkscape:cx="427.25"
     inkscape:cy="136"
     inkscape:window-width="3420"
     inkscape:window-height="1380"
     inkscape:window-x="0"
     inkscape:window-y="0"
     inkscape:window-maximized="1"
     inkscape:current-layer="layer1"
     inkscape:export-bgcolor="#ffffff00"><sodipodi:guide
       position="104.86504,278.0024"
       orientation="0,-1"
       id="guide2"
       inkscape:locked="false" /><sodipodi:guide
       position="96.767348,227.34321"
       orientation="0,-1"
       id="guide3"
       inkscape:locked="false" /></sodipodi:namedview><defs
     id="defs1" /><g
     inkscape:label="Calque 1"
     inkscape:groupmode="layer"
     id="layer1"><path
       style="fill:#ffd42a;stroke-width:1.06191;fill-opacity:1"
       d="m 51.521163,46.888611 c 1.304052,-3.643184 9.581991,-25.121069 11.480068,-30.062805 -1.080119,-0.154258 -4.486895,-0.351207 -6.362608,-0.351207 l -2.991254,9.180207 c -1.859507,5.706865 -3.071926,9.028852 -3.204486,8.780152 -0.117277,-0.220029 -1.127891,-3.371259 -2.245788,-7.002731 -1.117899,-3.631471 -2.340725,-7.582546 -2.717386,-8.780151 L 44.79487,16.474599 c -0.793519,0 -6.303423,0.190242 -6.999673,0.190242 -0.104599,0 2.086163,5.53215 4.635925,12.061149 2.549753,6.528999 4.635915,12.027942 4.635915,12.219883 0,0.19193 -0.948258,2.673922 -2.10723,5.515519 -1.158984,2.841609 -2.107242,5.222411 -2.107242,5.29067 0,0.06827 1.548823,0.123915 3.441824,0.12368 l 3.441813,-4.23e-4 z m 21.11368,-1.193676 c 0,-3.399666 0.05756,-6.181224 0.128004,-6.181224 0.0704,0 0.574687,0.303124 1.120627,0.673616 2.276957,1.54518 6.34307,1.67159 9.415623,0.292717 1.946129,-0.873372 4.353881,-3.233944 5.28433,-5.180805 1.395897,-2.920762 1.860878,-7.128269 1.155076,-10.452114 -0.40786,-1.920717 -1.679577,-4.439449 -2.953418,-5.849438 -1.379522,-1.52697 -3.996716,-2.769102 -6.284716,-2.982758 -2.674304,-0.24973 -4.745716,0.271638 -6.877339,1.731005 l -1.788913,1.224738 -0.512776,-1.246985 -0.512778,-1.246985 -4.354953,-0.0021 v 17.700781 17.700784 h 3.090618 3.090615 z m 3.753178,-9.810368 c -1.219376,-0.305215 -2.762262,-1.300941 -3.309149,-2.135594 -0.386537,-0.589937 -0.445174,-1.461249 -0.380271,-5.651308 l 0.07668,-4.95383 1.545297,-0.875707 c 2.326345,-1.318286 5.372292,-1.388291 7.514605,1.051656 1.229209,1.399986 1.617954,2.767508 1.608354,5.657752 -0.0074,2.141903 -0.117586,2.743551 -0.72226,3.933501 -1.207322,2.375916 -3.820077,3.602629 -6.3333,2.97353 z m 62.329199,5.051208 c 0.57146,-0.174102 1.68127,-0.748746 2.46622,-1.276995 l 1.42721,-0.960439 0.44417,1.110105 0.44418,1.110094 h 2.37554 2.37553 l -0.0881,-8.920633 c -0.0881,-8.920633 -0.0881,-8.920633 -0.90644,-10.693021 -0.98653,-2.136624 -2.66845,-3.713906 -4.90007,-4.595295 -4.43108,-1.415396 -9.49835,-0.696495 -13.75858,0.942354 -1.33798,0.528026 -1.47751,0.660913 -1.32637,1.263135 0.25396,1.011834 1.29997,3.740742 1.43387,3.740742 0.0644,0 1.09843,-0.275631 2.29778,-0.612512 3.05482,-0.858069 6.77954,-0.857985 8.42796,2.12e-4 1.4112,0.734696 2.03868,1.600411 2.2382,3.087963 l 0.1465,1.092242 -2.91121,0.198015 c -8.53142,0.580314 -12.3339,3.060968 -12.31578,8.034604 0.011,3.039028 2.04919,5.515401 5.47107,6.647487 1.28134,0.423906 5.0255,0.329406 6.65832,-0.168058 z m -3.42145,-4.809018 c -2.55157,-1.081146 -2.88312,-3.860748 -0.59945,-5.025796 0.99412,-0.507149 4.46058,-1.140049 6.24426,-1.140049 0.83349,0 0.83349,0 0.75231,2.453817 l -0.0813,2.453831 c -1.70485,0.939237 -4.38889,2.074714 -6.31594,1.258197 z m 63.41193,3.004676 1.1152,-1.007512 0.65445,1.397309 0.65447,1.39731 h 2.05922 2.05921 V 22.23438 3.5502105 h -3.09062 -3.09061 c -0.0265,4.8238785 -0.0767,10.1448535 -0.21073,13.9870785 -7.42011,-3.802814 -12.7316,-0.04681 -14.79133,2.956326 -1.44645,2.108962 -2.15219,4.383275 -2.32745,7.500535 -0.36878,6.558722 2.43874,11.412139 7.57611,13.096983 3.26363,0.805657 6.82931,0.255007 9.39208,-1.9597 z m -9.637,-6.52541 c -0.78197,-1.598268 -1.48224,-5.180582 0.0421,-8.161152 1.79605,-3.511906 5.77576,-4.037386 9.04314,-1.599009 l 0.91314,0.681452 v 5.130989 c 0,5.130978 0,5.130978 -0.80474,5.901971 -1.76966,1.695404 -6.83391,2.868753 -9.19358,-1.954251 z m -87.49649,0.500618 v -7.811898 l 0.91315,-0.866565 c 1.81843,-1.725664 4.37906,-2.405628 6.88174,-1.827416 1.19222,0.27545 1.19222,0.27545 1.58011,-1.030684 0.21332,-0.718373 0.55268,-2.042592 0.75411,-2.942702 0.43286,-1.934181 0.35216,-2.031442 -1.92086,-2.31544 -3.4973,-0.630373 -6.45626,0.96917 -8.86915,3.320436 -0.28096,-1.033609 -0.39489,-2.098955 -0.53535,-3.157773 H 95.112022 V 28.696565 40.91854 h 3.231098 3.2311 z M 121.52273,22.23438 V 3.5502105 h -3.23111 -3.23109 V 22.23438 40.91854 h 3.23109 3.23111 z m 39.33507,10.017792 c 0,-9.624002 0.18441,-8.864271 0.32887,-9.403395 2.3013,-1.992437 7.28816,-1.438147 8.8025,0.960273 0.52038,0.883491 0.56853,1.551064 0.65144,9.031751 l 0.0895,8.077739 h 3.21182 3.2118 v -8.518433 c 0,-9.379199 -0.13358,-10.375137 -1.72843,-12.887296 -0.91483,-1.441018 -2.831,-2.814467 -4.59327,-3.292285 -2.79504,-0.757857 -6.63838,-0.02931 -9.28206,1.7594 l -1.41504,0.957433 -0.5093,-1.231385 -0.50931,-1.231375 h -2.36037 -2.36038 V 28.696565 40.91854 h 3.23111 3.23109 z"
       id="path1"
       sodipodi:nodetypes="sccsssscsssssscssscssssssccccccccscscccscsccsscccccccssssssscssssscssccccsccccccccccsssscsscsssccssssscccccccccscccccccscsscccsssscccccccccsc" /><path
       id="path2"
       style="fill:#2f81da;stroke-width:2.14636;fill-opacity:1"
       d="m 9.4274554,3.5580004 c 0.018777,1.7598351 0.1010931,3.518328 0.109927,5.2783578 2.1987886,0.5356482 4.4396406,0.034838 6.6263926,-0.326215 11.655178,-1.9243702 13.796758,5.2897318 12.327626,8.4794438 -2.608468,5.663388 -10.10139,3.028323 -15.854979,8.710171 -3.3326331,3.130176 -4.7510133,8.007371 -3.8966671,12.466338 0.5285845,3.153777 2.0321471,6.084824 4.1259551,8.485362 1.902401,2.204777 3.985356,4.360579 6.563237,5.770015 6.360437,2.455236 -7.710007,-7.451557 -6.222147,-17.101314 1.064885,-6.700148 7.880889,-7.316957 13.089761,-9.260054 2.872635,-1.049248 5.806118,-2.734598 7.135905,-5.616665 1.557942,-3.376549 1.809103,-7.510549 0.148595,-10.9057891 C 32.201816,6.7175115 29.58425,4.510449 26.611144,3.5968983 20.981889,2.6453129 15.130607,3.0504495 9.4200029,3.045674 c 0.00248,0.1707901 0.00497,0.3415812 0.00745,0.5123712 z"
       sodipodi:nodetypes="ccssccccscsssccc"
       inkscape:export-filename="../../../../../../../tmp/logo2.png"
       inkscape:export-xdpi="197.03928"
       inkscape:export-ydpi="197.03928" /></g></svg>
